<?xml version="1.0" encoding="UTF-8" standalone="no"?>
<svg
   xmlns:dc="http://purl.org/dc/elements/1.1/"
   xmlns:cc="http://creativecommons.org/ns#"
   xmlns:rdf="http://www.w3.org/1999/02/22-rdf-syntax-ns#"
   xmlns:svg="http://www.w3.org/2000/svg"
   xmlns="http://www.w3.org/2000/svg"
   xmlns:sodipodi="http://sodipodi.sourceforge.net/DTD/sodipodi-0.dtd"
   xmlns:inkscape="http://www.inkscape.org/namespaces/inkscape"
   sodipodi:docname="5.svg"
   inkscape:version="1.0 (1.0+r73+1)"
   id="svg8"
   version="1.1"
   viewBox="0 0 800 800.00003"
   height="800"
   width="800">
  <defs
     id="defs2" />
  <sodipodi:namedview
     units="px"
     inkscape:window-maximized="0"
     inkscape:window-y="78"
     inkscape:window-x="316"
     inkscape:window-height="1023"
     inkscape:window-width="1360"
     showgrid="false"
     inkscape:document-rotation="0"
     inkscape:current-layer="layer1"
     inkscape:document-units="px"
     inkscape:cy="674.28571"
     inkscape:cx="348.57143"
     inkscape:zoom="0.35"
     inkscape:pageshadow="2"
     inkscape:pageopacity="0.0"
     borderopacity="1.0"
     bordercolor="#666666"
     pagecolor="#ffffff"
     id="base" />
  <metadata
     id="metadata5">
    <rdf:RDF>
      <cc:Work
         rdf:about="">
        <dc:format>image/svg+xml</dc:format>
        <dc:type
           rdf:resource="http://purl.org/dc/dcmitype/StillImage" />
        <dc:title></dc:title>
      </cc:Work>
    </rdf:RDF>
  </metadata>
  <g
     id="layer1"
     inkscape:groupmode="layer"
     inkscape:label="图层 1">
    <path
       id="path194"
       d="m 581.44789,74.601925 1.45673,2.172877 -1.45673,-2.172877 M 335.75268,91.985105 C 262.96308,189.59378 162.13222,276.26768 108.95575,382.06711 c 34.61925,7.1119 68.17036,-9.78782 100.31403,-17.87362 63.77704,-16.04316 125.04274,-30.46741 191.90509,-36.60737 32.96493,-3.02695 80.33365,-9.62746 106.72975,10.13527 49.31089,36.92288 4.75838,130.32081 -16.88197,171.46031 -33.87474,64.39168 -67.14149,178.36458 -172.71589,196.60063 -53.49442,9.24351 -101.66957,-3.89166 -152.65177,-14.07712 v 3.25935 c 25.07021,8.30481 51.39698,14.44217 78.50662,17.63307 169.1687,19.89832 215.70612,-115.85028 261.45324,-209.93463 19.14253,-39.36641 65.47889,-142.25654 8.3784,-173.63331 -32.32772,-17.76443 -85.14218,-11.24801 -121.54134,-6.96621 -92.62343,10.89535 -183.42594,50.78424 -274.7732,56.74428 23.95848,-39.65095 53.31473,-76.61555 82.82101,-114.07719 13.72688,-17.42774 26.73674,-40.65353 48.82763,-53.11793 34.50584,-19.46874 93.38712,-21.88066 134.4016,-29.13532 95.54474,-16.90004 192.80355,-33.0022 287.85763,-51.38004 v -3.25935 C 535.38194,132.20839 387.90725,171.8349 257.24605,199.5436 L 348.83711,91.985105 h -13.08443 m 266.05023,97.780445 4.36148,3.25935 -4.36148,-3.25935 m -457.95532,495.42096 4.36148,3.25935 z"
       style="fill:#010101;stroke:none;stroke-width:3.77036" />
  </g>
</svg>
