<?xml version="1.0" encoding="UTF-8" standalone="no"?>
<svg
   xmlns:dc="http://purl.org/dc/elements/1.1/"
   xmlns:cc="http://creativecommons.org/ns#"
   xmlns:rdf="http://www.w3.org/1999/02/22-rdf-syntax-ns#"
   xmlns:svg="http://www.w3.org/2000/svg"
   xmlns="http://www.w3.org/2000/svg"
   xmlns:sodipodi="http://sodipodi.sourceforge.net/DTD/sodipodi-0.dtd"
   xmlns:inkscape="http://www.inkscape.org/namespaces/inkscape"
   sodipodi:docname="che.svg"
   inkscape:version="1.0 (1.0+r73+1)"
   id="svg8"
   version="1.1"
   viewBox="0 0 800 800.00003"
   height="800"
   width="800">
  <defs
     id="defs2" />
  <sodipodi:namedview
     units="px"
     inkscape:window-maximized="1"
     inkscape:window-y="27"
     inkscape:window-x="67"
     inkscape:window-height="1025"
     inkscape:window-width="1853"
     showgrid="false"
     inkscape:document-rotation="0"
     inkscape:current-layer="layer1"
     inkscape:document-units="px"
     inkscape:cy="560"
     inkscape:cx="400"
     inkscape:zoom="0.35"
     inkscape:pageshadow="2"
     inkscape:pageopacity="0.0"
     borderopacity="1.0"
     bordercolor="#666666"
     pagecolor="#ffffff"
     id="base" />
  <metadata
     id="metadata5">
    <rdf:RDF>
      <cc:Work
         rdf:about="">
        <dc:format>image/svg+xml</dc:format>
        <dc:type
           rdf:resource="http://purl.org/dc/dcmitype/StillImage" />
        <dc:title></dc:title>
      </cc:Work>
    </rdf:RDF>
  </metadata>
  <g
     id="layer1"
     inkscape:groupmode="layer"
     inkscape:label="图层 1">
    <path
       style="fill:#000000;stroke:none;stroke-width:4.2221"
       id="path255"
       d="m 310.09991,93.090206 c -41.09194,45.116814 -56.50144,58.998944 -56.50144,62.469454 0,0 -15.4095,13.88209 -35.95552,34.70524 -15.40949,17.35264 -30.81897,34.70527 -35.95546,38.17579 0,3.47054 -5.13648,10.41158 -10.27301,13.88212 -10.27297,10.41157 -30.81899,34.70524 -56.50145,69.41048 -10.27301,13.88213 -25.682499,27.76422 -25.682499,31.23473 -15.409492,13.88212 -20.545976,31.23475 -15.409492,34.70528 10.273008,0 35.955471,-3.47053 71.910981,-10.41158 82.18395,-24.2937 190.05039,-45.11685 256.82485,-52.05788 113.00293,-6.94106 143.82195,0 159.23145,38.17575 10.27297,34.70528 -35.95552,163.1147 -92.45699,242.93679 -10.27297,13.88209 -15.4095,24.29367 -15.4095,27.76421 0,3.47052 -46.22848,55.52839 -66.77446,65.93997 -25.68246,17.35263 -51.36496,27.76421 -92.45695,31.23472 -41.09195,3.47053 -97.59344,0 -148.9584,-17.35262 -10.27301,0 -10.27301,0 -5.13653,3.47053 0,0 20.54602,6.94104 41.092,10.41158 46.22848,10.41158 133.54895,10.41158 169.50441,0 30.819,-6.94106 61.63797,-31.23473 87.32044,-62.46946 10.273,-13.88211 25.6825,-24.29369 25.6825,-27.7642 5.13649,0 5.13649,-3.47052 5.13649,-6.94106 0,-3.47051 5.13652,-13.88209 10.273,-24.29367 10.273,-6.94106 20.54597,-27.76421 25.6825,-41.6463 10.27297,-13.88209 20.54597,-34.70524 25.6825,-45.11682 25.68246,-41.6463 51.36496,-135.35049 41.09196,-156.17367 -10.27297,-31.23472 -20.54597,-38.17575 -71.91099,-45.11681 -51.36496,-6.94107 -133.5489,3.47051 -267.09785,31.23473 -25.68247,3.47051 -66.77446,13.88208 -92.45696,20.82315 -20.54597,6.94106 -46.228473,10.41157 -51.364959,10.41157 -10.273007,0 -10.273007,0 -5.136484,-10.41157 10.27297,-17.35264 92.456963,-114.52734 133.548903,-156.17363 15.4095,-13.88213 35.95552,-20.82315 133.54895,-38.17579 25.6825,-3.47052 66.77446,-10.41158 87.32044,-13.88209 46.22848,-10.41158 154.09497,-27.76422 220.86941,-34.70528 61.63798,-6.94103 71.91099,-10.41157 71.91099,-13.88209 -10.27301,-3.47051 -102.72996,10.41158 -231.14244,31.23473 -30.81897,6.94106 -61.63796,10.41157 -71.91093,13.88209 -30.81898,3.47055 -159.2314,27.76421 -174.6409,27.76421 -15.4095,3.47052 -15.4095,0 10.27297,-20.82315 10.273,-10.41158 20.54601,-20.82315 20.54601,-20.82315 0,-3.47051 15.40949,-17.35264 35.95546,-38.175787 25.68252,-24.293668 30.81899,-31.234727 25.68252,-31.234727 -5.13653,0 -20.54602,13.882119 -35.95552,27.76421 z" />
    <path
       d="m 310.09991,93.090206 c -41.09194,45.116814 -56.50144,58.998944 -56.50144,62.469454 0,0 -15.4095,13.88209 -35.95552,34.70524 -15.40949,17.35264 -30.81897,34.70527 -35.95546,38.17579 0,3.47054 -5.13648,10.41158 -10.27301,13.88212 -10.27297,10.41157 -30.81899,34.70524 -56.50145,69.41048 -10.27301,13.88213 -25.682499,27.76422 -25.682499,31.23473 -15.409492,13.88212 -20.545976,31.23475 -15.409492,34.70528 10.273008,0 35.955471,-3.47053 71.910981,-10.41158 82.18395,-24.2937 190.05039,-45.11685 256.82485,-52.05788 113.00293,-6.94106 143.82195,0 159.23145,38.17575 10.27297,34.70528 -35.95552,163.1147 -92.45699,242.93679 -10.27297,13.88209 -15.4095,24.29367 -15.4095,27.76421 0,3.47052 -46.22848,55.52839 -66.77446,65.93997 -25.68246,17.35263 -51.36496,27.76421 -92.45695,31.23472 -41.09195,3.47053 -97.59344,0 -148.9584,-17.35262 -10.27301,0 -10.27301,0 -5.13653,3.47053 0,0 20.54602,6.94104 41.092,10.41158 46.22848,10.41158 133.54895,10.41158 169.50441,0 30.819,-6.94106 61.63797,-31.23473 87.32044,-62.46946 10.273,-13.88211 25.6825,-24.29369 25.6825,-27.7642 5.13649,0 5.13649,-3.47052 5.13649,-6.94106 0,-3.47051 5.13652,-13.88209 10.273,-24.29367 10.273,-6.94106 20.54597,-27.76421 25.6825,-41.6463 10.27297,-13.88209 20.54597,-34.70524 25.6825,-45.11682 25.68246,-41.6463 51.36496,-135.35049 41.09196,-156.17367 -10.27297,-31.23472 -20.54597,-38.17575 -71.91099,-45.11681 -51.36496,-6.94107 -133.5489,3.47051 -267.09785,31.23473 -25.68247,3.47051 -66.77446,13.88208 -92.45696,20.82315 -20.54597,6.94106 -46.228473,10.41157 -51.364959,10.41157 -10.273007,0 -10.273007,0 -5.136484,-10.41157 10.27297,-17.35264 92.456963,-114.52734 133.548903,-156.17363 15.4095,-13.88213 35.95552,-20.82315 133.54895,-38.17579 25.6825,-3.47052 66.77446,-10.41158 87.32044,-13.88209 46.22848,-10.41158 154.09497,-27.76422 220.86941,-34.70528 61.63798,-6.94103 71.91099,-10.41157 71.91099,-13.88209 -10.27301,-3.47051 -102.72996,10.41158 -231.14244,31.23473 -30.81897,6.94106 -61.63796,10.41157 -71.91093,13.88209 -30.81898,3.47055 -159.2314,27.76421 -174.6409,27.76421 -15.4095,3.47052 -15.4095,0 10.27297,-20.82315 10.273,-10.41158 20.54601,-20.82315 20.54601,-20.82315 0,-3.47051 15.40949,-17.35264 35.95546,-38.175787 25.68252,-24.293668 30.81899,-31.234727 25.68252,-31.234727 -5.13653,0 -20.54602,13.882119 -35.95552,27.76421 z"
       id="path267"
       style="fill:#000000;stroke:none;stroke-width:4.2221" />
  </g>
</svg>
