<?xml version="1.0" encoding="UTF-8" standalone="no"?>
<svg
   xmlns:dc="http://purl.org/dc/elements/1.1/"
   xmlns:cc="http://creativecommons.org/ns#"
   xmlns:rdf="http://www.w3.org/1999/02/22-rdf-syntax-ns#"
   xmlns:svg="http://www.w3.org/2000/svg"
   xmlns="http://www.w3.org/2000/svg"
   xmlns:sodipodi="http://sodipodi.sourceforge.net/DTD/sodipodi-0.dtd"
   xmlns:inkscape="http://www.inkscape.org/namespaces/inkscape"
   sodipodi:docname="3.svg"
   inkscape:version="1.0 (1.0+r73+1)"
   id="svg8"
   version="1.1"
   viewBox="0 0 800 800.00003"
   height="800"
   width="800">
  <defs
     id="defs2" />
  <sodipodi:namedview
     inkscape:window-maximized="1"
     inkscape:window-y="27"
     inkscape:window-x="67"
     inkscape:window-height="1025"
     inkscape:window-width="1853"
     units="px"
     showgrid="false"
     inkscape:document-rotation="0"
     inkscape:current-layer="layer1"
     inkscape:document-units="px"
     inkscape:cy="560"
     inkscape:cx="348.57143"
     inkscape:zoom="0.35"
     inkscape:pageshadow="2"
     inkscape:pageopacity="0.0"
     borderopacity="1.0"
     bordercolor="#666666"
     pagecolor="#ffffff"
     id="base" />
  <metadata
     id="metadata5">
    <rdf:RDF>
      <cc:Work
         rdf:about="">
        <dc:format>image/svg+xml</dc:format>
        <dc:type
           rdf:resource="http://purl.org/dc/dcmitype/StillImage" />
        <dc:title></dc:title>
      </cc:Work>
    </rdf:RDF>
  </metadata>
  <g
     id="layer1"
     inkscape:groupmode="layer"
     inkscape:label="图层 1">
    <g
       style="font-style:normal;font-weight:normal;font-size:533.333px;line-height:1.25;font-family:sans-serif;fill:#000000;fill-opacity:1;stroke:none"
       id="text12"
       aria-label="1" />
    <g
       style="font-size:533.333px;line-height:1.25;font-family:sans-serif"
       id="text37"
       aria-label="2" />
    <g
       style="font-size:533.333px;line-height:1.25;font-family:sans-serif"
       id="text62"
       aria-label="3">
      <path
         id="path64"
         d="m 401.10805,582.71287 c 69.33329,0 125.33326,-41.59997 125.33326,-111.4666 0,-53.3333 -36.79998,-88.53328 -82.66662,-99.19994 V 369.913 c 41.06664,-15.46666 69.33329,-46.9333 69.33329,-94.39994 0,-61.86663 -47.99997,-98.13328 -113.59993,-98.13328 -45.3333,0 -79.99995,19.73333 -109.33327,46.93331 l 26.13332,30.93331 c 21.86666,-22.39998 49.59997,-37.86664 81.06662,-37.86664 40.53331,0 66.13329,24.53332 66.13329,61.86663 0,42.13331 -27.73331,74.66662 -108.2666,74.66662 v 37.33331 c 90.13328,0 121.59993,31.46665 121.59993,77.86662 0,45.33331 -33.06665,73.06662 -79.46662,73.06662 -44.26664,0 -74.13329,-20.79999 -97.06661,-44.79997 l -24.53332,31.99998 c 25.59999,27.73332 63.99996,53.3333 125.33326,53.3333 z" />
    </g>
  </g>
</svg>
