<?xml version="1.0" standalone="no"?>
<!DOCTYPE svg PUBLIC "-//W3C//DTD SVG 20010904//EN"
 "http://www.w3.org/TR/2001/REC-SVG-20010904/DTD/svg10.dtd">
<svg version="1.0" xmlns="http://www.w3.org/2000/svg"
 width="149.000000pt" height="213.000000pt" viewBox="0 0 149.000000 213.000000"
 preserveAspectRatio="xMidYMid meet">
<metadata>
Created by potrace 1.14, written by Peter Selinger 2001-2017
</metadata>
<g transform="translate(0.000000,213.000000) scale(1.000000,-1.000000)"
fill="#000000" stroke="none">
<path d="M57 194 c-8 -13 -11 -17 -11 -18 0 0 -3 -4 -7 -10 -3 -5 -6 -10 -7
-11 0 -1 -1 -3 -2 -4 -2 -3 -6 -10 -11 -20 -2 -4 -5 -8 -5 -9 -3 -4 -4 -9 -3
-10 2 0 7 1 14 3 16 7 37 13 50 15 22 2 28 0 31 -11 2 -10 -7 -47 -18 -70 -2
-4 -3 -7 -3 -8 0 -1 -9 -16 -13 -19 -5 -5 -10 -8 -18 -9 -8 -1 -19 0 -29 5 -2
0 -2 0 -1 -1 0 0 4 -2 8 -3 9 -3 26 -3 33 0 6 2 12 9 17 18 2 4 5 7 5 8 1 0 1
1 1 2 0 1 1 4 2 7 2 2 4 8 5 12 2 4 4 10 5 13 5 12 10 39 8 45 -2 9 -4 11 -14
13 -10 2 -26 -1 -52 -9 -5 -1 -13 -4 -18 -6 -4 -2 -9 -3 -10 -3 -2 0 -2 0 -1
3 2 5 18 33 26 45 3 4 7 6 26 11 5 1 13 3 17 4 9 3 30 8 43 10 12 2 14 3 14 4
-2 1 -20 -3 -45 -9 -6 -2 -12 -3 -14 -4 -6 -1 -31 -8 -34 -8 -3 -1 -3 0 2 6 2
3 4 6 4 6 0 1 3 5 7 11 5 7 6 9 5 9 -1 0 -4 -4 -7 -8z"/>
</g>
</svg>
