<?xml version="1.0" encoding="UTF-8" standalone="no"?>
<svg
   xmlns:dc="http://purl.org/dc/elements/1.1/"
   xmlns:cc="http://creativecommons.org/ns#"
   xmlns:rdf="http://www.w3.org/1999/02/22-rdf-syntax-ns#"
   xmlns:svg="http://www.w3.org/2000/svg"
   xmlns="http://www.w3.org/2000/svg"
   xmlns:sodipodi="http://sodipodi.sourceforge.net/DTD/sodipodi-0.dtd"
   xmlns:inkscape="http://www.inkscape.org/namespaces/inkscape"
   sodipodi:docname="6.svg"
   inkscape:version="1.0 (1.0+r73+1)"
   id="svg8"
   version="1.1"
   viewBox="0 0 800 800.00003"
   height="800"
   width="800">
  <defs
     id="defs2" />
  <sodipodi:namedview
     inkscape:window-maximized="1"
     inkscape:window-y="27"
     inkscape:window-x="67"
     inkscape:window-height="1025"
     inkscape:window-width="1853"
     units="px"
     showgrid="false"
     inkscape:document-rotation="0"
     inkscape:current-layer="layer1"
     inkscape:document-units="px"
     inkscape:cy="560"
     inkscape:cx="348.57143"
     inkscape:zoom="0.35"
     inkscape:pageshadow="2"
     inkscape:pageopacity="0.0"
     borderopacity="1.0"
     bordercolor="#666666"
     pagecolor="#ffffff"
     id="base" />
  <metadata
     id="metadata5">
    <rdf:RDF>
      <cc:Work
         rdf:about="">
        <dc:format>image/svg+xml</dc:format>
        <dc:type
           rdf:resource="http://purl.org/dc/dcmitype/StillImage" />
        <dc:title></dc:title>
      </cc:Work>
    </rdf:RDF>
  </metadata>
  <g
     id="layer1"
     inkscape:groupmode="layer"
     inkscape:label="图层 1">
    <g
       style="font-style:normal;font-weight:normal;font-size:533.333px;line-height:1.25;font-family:sans-serif;fill:#000000;fill-opacity:1;stroke:none"
       id="text12"
       aria-label="1" />
    <g
       style="font-size:533.333px;line-height:1.25;font-family:sans-serif"
       id="text37"
       aria-label="2" />
    <g
       style="font-size:533.333px;line-height:1.25;font-family:sans-serif"
       id="text62"
       aria-label="3" />
    <g
       style="font-size:533.333px;line-height:1.25;font-family:sans-serif"
       id="text87"
       aria-label="4" />
    <g
       style="font-size:533.333px;line-height:1.25;font-family:sans-serif"
       id="text119"
       aria-label="5" />
    <g
       style="font-size:533.333px;line-height:1.25;font-family:sans-serif"
       id="text144"
       aria-label="6">
      <path
         id="path146"
         d="m 392.00543,372.50168 c 47.46664,0 70.93329,33.59998 70.93329,86.39994 0,53.3333 -29.33331,89.06662 -66.66662,89.06662 -49.06664,0 -78.39996,-44.26664 -84.26662,-125.33326 23.99999,-35.73331 55.46663,-50.1333 79.99995,-50.1333 z m 4.26667,213.3332 c 60.79996,0 111.99993,-51.19997 111.99993,-126.93326 0,-81.59995 -42.13331,-122.66659 -108.2666,-122.66659 -30.93332,0 -65.06663,18.13332 -89.06661,47.46664 2.13333,-121.59993 47.46663,-162.66657 100.79993,-162.66657 23.99999,0 47.46664,11.2 62.9333,29.86665 l 26.66665,-30.39998 c -21.33332,-22.93332 -50.66664,-39.99998 -91.19995,-39.99998 -75.73328,0 -144.53324,58.66663 -144.53324,211.73321 0,129.06659 55.46663,193.59988 130.66659,193.59988 z" />
    </g>
  </g>
</svg>
